<svg width="15" height="110" viewBox="0 0 15 110" fill="none" xmlns="http://www.w3.org/2000/svg">
<path d="M8.5 1C8.5 0.447715 8.05228 2.41411e-08 7.5 0C6.94772 -2.41411e-08 6.5 0.447715 6.5 1L8.5 1ZM6.79289 109.707C7.18341 110.098 7.81658 110.098 8.2071 109.707L14.5711 103.343C14.9616 102.953 14.9616 102.319 14.5711 101.929C14.1805 101.538 13.5474 101.538 13.1568 101.929L7.5 107.586L1.84314 101.929C1.45262 101.538 0.819452 101.538 0.428928 101.929C0.0384034 102.319 0.0384033 102.953 0.428928 103.343L6.79289 109.707ZM6.5 6.4C6.5 6.95228 6.94771 7.4 7.5 7.4C8.05228 7.4 8.5 6.95228 8.5 6.4L6.5 6.4ZM8.5 17.2C8.5 16.6477 8.05228 16.2 7.5 16.2C6.94771 16.2 6.5 16.6477 6.5 17.2L8.5 17.2ZM6.5 28C6.5 28.5523 6.94771 29 7.5 29C8.05228 29 8.5 28.5523 8.5 28L6.5 28ZM8.5 38.8C8.5 38.2477 8.05228 37.8 7.5 37.8C6.94771 37.8 6.5 38.2477 6.5 38.8L8.5 38.8ZM6.5 49.6C6.5 50.1523 6.94771 50.6 7.5 50.6C8.05228 50.6 8.5 50.1523 8.5 49.6L6.5 49.6ZM8.5 60.4C8.5 59.8477 8.05228 59.4 7.5 59.4C6.94771 59.4 6.5 59.8477 6.5 60.4L8.5 60.4ZM6.5 71.2C6.5 71.7523 6.94771 72.2 7.5 72.2C8.05228 72.2 8.5 71.7523 8.5 71.2L6.5 71.2ZM8.5 82C8.5 81.4477 8.05228 81 7.5 81C6.94771 81 6.5 81.4477 6.5 82L8.5 82ZM6.5 92.8C6.5 93.3523 6.94771 93.8 7.5 93.8C8.05228 93.8 8.5 93.3523 8.5 92.8L6.5 92.8ZM8.5 103.6C8.5 103.048 8.05228 102.6 7.5 102.6C6.94771 102.6 6.5 103.048 6.5 103.6L8.5 103.6ZM6.5 1L6.5 6.4L8.5 6.4L8.5 1L6.5 1ZM6.5 17.2L6.5 28L8.5 28L8.5 17.2L6.5 17.2ZM6.5 38.8L6.5 49.6L8.5 49.6L8.5 38.8L6.5 38.8ZM6.5 60.4L6.5 71.2L8.5 71.2L8.5 60.4L6.5 60.4ZM6.5 82L6.5 92.8L8.5 92.8L8.5 82L6.5 82ZM6.5 103.6L6.5 109L8.5 109L8.5 103.6L6.5 103.6Z" fill="#262626"/>
</svg>
