<svg width="277" height="277" viewBox="0 0 277 277" fill="none" xmlns="http://www.w3.org/2000/svg">
<g clip-path="url(#clip0_103_1488)">
<rect width="5" height="5" fill="#FFDF40"/>
<rect x="10" y="15" width="5" height="5" fill="#FFDF40"/>
<rect y="30" width="5" height="5" fill="#FFDF40"/>
<rect x="10" y="45" width="5" height="5" fill="#FFDF40"/>
<rect y="60" width="5" height="5" fill="#FFDF40"/>
<rect x="10" y="75" width="5" height="5" fill="#FFDF40"/>
<rect y="90" width="5" height="5" fill="#FFDF40"/>
<rect x="10" y="105" width="5" height="5" fill="#FFDF40"/>
<rect y="120" width="5" height="5" fill="#FFDF40"/>
<rect x="10" y="135" width="5" height="5" fill="#FFDF40"/>
<rect y="150" width="5" height="5" fill="#FFDF40"/>
<rect x="10" y="165" width="5" height="5" fill="#FFDF40"/>
<rect y="180" width="5" height="5" fill="#FFDF40"/>
<rect x="10" y="195" width="5" height="5" fill="#FFDF40"/>
<rect y="210" width="5" height="5" fill="#FFDF40"/>
<rect x="10" y="225" width="5" height="5" fill="#FFDF40"/>
<rect y="240" width="5" height="5" fill="#FFDF40"/>
<rect x="10" y="255" width="5" height="5" fill="#FFDF40"/>
<rect y="270" width="5" height="5" fill="#FFDF40"/>
<rect width="5" height="5" fill="#FFDF40"/>
<rect x="10" y="15" width="5" height="5" fill="#FFDF40"/>
<rect y="30" width="5" height="5" fill="#FFDF40"/>
<rect x="10" y="45" width="5" height="5" fill="#FFDF40"/>
<rect y="60" width="5" height="5" fill="#FFDF40"/>
<rect x="10" y="75" width="5" height="5" fill="#FFDF40"/>
<rect y="90" width="5" height="5" fill="#FFDF40"/>
<rect x="10" y="105" width="5" height="5" fill="#FFDF40"/>
<rect y="120" width="5" height="5" fill="#FFDF40"/>
<rect x="10" y="135" width="5" height="5" fill="#FFDF40"/>
<rect y="150" width="5" height="5" fill="#FFDF40"/>
<rect x="10" y="165" width="5" height="5" fill="#FFDF40"/>
<rect y="180" width="5" height="5" fill="#FFDF40"/>
<rect x="10" y="195" width="5" height="5" fill="#FFDF40"/>
<rect y="210" width="5" height="5" fill="#FFDF40"/>
<rect x="10" y="225" width="5" height="5" fill="#FFDF40"/>
<rect y="240" width="5" height="5" fill="#FFDF40"/>
<rect x="10" y="255" width="5" height="5" fill="#FFDF40"/>
<rect y="270" width="5" height="5" fill="#FFDF40"/>
<rect x="15" width="5" height="5" fill="#FFDF40"/>
<rect x="25" y="15" width="5" height="5" fill="#FFDF40"/>
<rect x="15" y="30" width="5" height="5" fill="#FFDF40"/>
<rect x="25" y="45" width="5" height="5" fill="#FFDF40"/>
<rect x="15" y="60" width="5" height="5" fill="#FFDF40"/>
<rect x="25" y="75" width="5" height="5" fill="#FFDF40"/>
<rect x="15" y="90" width="5" height="5" fill="#FFDF40"/>
<rect x="25" y="105" width="5" height="5" fill="#FFDF40"/>
<rect x="15" y="120" width="5" height="5" fill="#FFDF40"/>
<rect x="25" y="135" width="5" height="5" fill="#FFDF40"/>
<rect x="15" y="150" width="5" height="5" fill="#FFDF40"/>
<rect x="25" y="165" width="5" height="5" fill="#FFDF40"/>
<rect x="15" y="180" width="5" height="5" fill="#FFDF40"/>
<rect x="25" y="195" width="5" height="5" fill="#FFDF40"/>
<rect x="15" y="210" width="5" height="5" fill="#FFDF40"/>
<rect x="25" y="225" width="5" height="5" fill="#FFDF40"/>
<rect x="15" y="240" width="5" height="5" fill="#FFDF40"/>
<rect x="25" y="255" width="5" height="5" fill="#FFDF40"/>
<rect x="15" y="270" width="5" height="5" fill="#FFDF40"/>
<rect x="30" width="5" height="5" fill="#FFDF40"/>
<rect x="40" y="15" width="5" height="5" fill="#FFDF40"/>
<rect x="30" y="30" width="5" height="5" fill="#FFDF40"/>
<rect x="40" y="45" width="5" height="5" fill="#FFDF40"/>
<rect x="30" y="60" width="5" height="5" fill="#FFDF40"/>
<rect x="40" y="75" width="5" height="5" fill="#FFDF40"/>
<rect x="30" y="90" width="5" height="5" fill="#FFDF40"/>
<rect x="40" y="105" width="5" height="5" fill="#FFDF40"/>
<rect x="30" y="120" width="5" height="5" fill="#FFDF40"/>
<rect x="40" y="135" width="5" height="5" fill="#FFDF40"/>
<rect x="30" y="150" width="5" height="5" fill="#FFDF40"/>
<rect x="40" y="165" width="5" height="5" fill="#FFDF40"/>
<rect x="30" y="180" width="5" height="5" fill="#FFDF40"/>
<rect x="40" y="195" width="5" height="5" fill="#FFDF40"/>
<rect x="30" y="210" width="5" height="5" fill="#FFDF40"/>
<rect x="40" y="225" width="5" height="5" fill="#FFDF40"/>
<rect x="30" y="240" width="5" height="5" fill="#FFDF40"/>
<rect x="40" y="255" width="5" height="5" fill="#FFDF40"/>
<rect x="30" y="270" width="5" height="5" fill="#FFDF40"/>
<rect x="45" width="5" height="5" fill="#FFDF40"/>
<rect x="55" y="15" width="5" height="5" fill="#FFDF40"/>
<rect x="45" y="30" width="5" height="5" fill="#FFDF40"/>
<rect x="55" y="45" width="5" height="5" fill="#FFDF40"/>
<rect x="45" y="60" width="5" height="5" fill="#FFDF40"/>
<rect x="55" y="75" width="5" height="5" fill="#FFDF40"/>
<rect x="45" y="90" width="5" height="5" fill="#FFDF40"/>
<rect x="55" y="105" width="5" height="5" fill="#FFDF40"/>
<rect x="45" y="120" width="5" height="5" fill="#FFDF40"/>
<rect x="55" y="135" width="5" height="5" fill="#FFDF40"/>
<rect x="45" y="150" width="5" height="5" fill="#FFDF40"/>
<rect x="55" y="165" width="5" height="5" fill="#FFDF40"/>
<rect x="45" y="180" width="5" height="5" fill="#FFDF40"/>
<rect x="55" y="195" width="5" height="5" fill="#FFDF40"/>
<rect x="45" y="210" width="5" height="5" fill="#FFDF40"/>
<rect x="55" y="225" width="5" height="5" fill="#FFDF40"/>
<rect x="45" y="240" width="5" height="5" fill="#FFDF40"/>
<rect x="55" y="255" width="5" height="5" fill="#FFDF40"/>
<rect x="45" y="270" width="5" height="5" fill="#FFDF40"/>
<rect x="60" width="5" height="5" fill="#FFDF40"/>
<rect x="70" y="15" width="5" height="5" fill="#FFDF40"/>
<rect x="60" y="30" width="5" height="5" fill="#FFDF40"/>
<rect x="70" y="45" width="5" height="5" fill="#FFDF40"/>
<rect x="60" y="60" width="5" height="5" fill="#FFDF40"/>
<rect x="70" y="75" width="5" height="5" fill="#FFDF40"/>
<rect x="60" y="90" width="5" height="5" fill="#FFDF40"/>
<rect x="70" y="105" width="5" height="5" fill="#FFDF40"/>
<rect x="60" y="120" width="5" height="5" fill="#FFDF40"/>
<rect x="70" y="135" width="5" height="5" fill="#FFDF40"/>
<rect x="60" y="150" width="5" height="5" fill="#FFDF40"/>
<rect x="70" y="165" width="5" height="5" fill="#FFDF40"/>
<rect x="60" y="180" width="5" height="5" fill="#FFDF40"/>
<rect x="70" y="195" width="5" height="5" fill="#FFDF40"/>
<rect x="60" y="210" width="5" height="5" fill="#FFDF40"/>
<rect x="70" y="225" width="5" height="5" fill="#FFDF40"/>
<rect x="60" y="240" width="5" height="5" fill="#FFDF40"/>
<rect x="70" y="255" width="5" height="5" fill="#FFDF40"/>
<rect x="60" y="270" width="5" height="5" fill="#FFDF40"/>
<rect x="75" width="5" height="5" fill="#FFDF40"/>
<rect x="85" y="15" width="5" height="5" fill="#FFDF40"/>
<rect x="75" y="30" width="5" height="5" fill="#FFDF40"/>
<rect x="85" y="45" width="5" height="5" fill="#FFDF40"/>
<rect x="75" y="60" width="5" height="5" fill="#FFDF40"/>
<rect x="85" y="75" width="5" height="5" fill="#FFDF40"/>
<rect x="75" y="90" width="5" height="5" fill="#FFDF40"/>
<rect x="85" y="105" width="5" height="5" fill="#FFDF40"/>
<rect x="75" y="120" width="5" height="5" fill="#FFDF40"/>
<rect x="85" y="135" width="5" height="5" fill="#FFDF40"/>
<rect x="75" y="150" width="5" height="5" fill="#FFDF40"/>
<rect x="85" y="165" width="5" height="5" fill="#FFDF40"/>
<rect x="75" y="180" width="5" height="5" fill="#FFDF40"/>
<rect x="85" y="195" width="5" height="5" fill="#FFDF40"/>
<rect x="75" y="210" width="5" height="5" fill="#FFDF40"/>
<rect x="85" y="225" width="5" height="5" fill="#FFDF40"/>
<rect x="75" y="240" width="5" height="5" fill="#FFDF40"/>
<rect x="85" y="255" width="5" height="5" fill="#FFDF40"/>
<rect x="75" y="270" width="5" height="5" fill="#FFDF40"/>
<rect x="90" width="5" height="5" fill="#FFDF40"/>
<rect x="100" y="15" width="5" height="5" fill="#FFDF40"/>
<rect x="90" y="30" width="5" height="5" fill="#FFDF40"/>
<rect x="100" y="45" width="5" height="5" fill="#FFDF40"/>
<rect x="90" y="60" width="5" height="5" fill="#FFDF40"/>
<rect x="100" y="75" width="5" height="5" fill="#FFDF40"/>
<rect x="90" y="90" width="5" height="5" fill="#FFDF40"/>
<rect x="100" y="105" width="5" height="5" fill="#FFDF40"/>
<rect x="90" y="120" width="5" height="5" fill="#FFDF40"/>
<rect x="100" y="135" width="5" height="5" fill="#FFDF40"/>
<rect x="90" y="150" width="5" height="5" fill="#FFDF40"/>
<rect x="100" y="165" width="5" height="5" fill="#FFDF40"/>
<rect x="90" y="180" width="5" height="5" fill="#FFDF40"/>
<rect x="100" y="195" width="5" height="5" fill="#FFDF40"/>
<rect x="90" y="210" width="5" height="5" fill="#FFDF40"/>
<rect x="100" y="225" width="5" height="5" fill="#FFDF40"/>
<rect x="90" y="240" width="5" height="5" fill="#FFDF40"/>
<rect x="100" y="255" width="5" height="5" fill="#FFDF40"/>
<rect x="90" y="270" width="5" height="5" fill="#FFDF40"/>
<rect x="105" width="5" height="5" fill="#FFDF40"/>
<rect x="115" y="15" width="5" height="5" fill="#FFDF40"/>
<rect x="105" y="30" width="5" height="5" fill="#FFDF40"/>
<rect x="115" y="45" width="5" height="5" fill="#FFDF40"/>
<rect x="105" y="60" width="5" height="5" fill="#FFDF40"/>
<rect x="115" y="75" width="5" height="5" fill="#FFDF40"/>
<rect x="105" y="90" width="5" height="5" fill="#FFDF40"/>
<rect x="115" y="105" width="5" height="5" fill="#FFDF40"/>
<rect x="105" y="120" width="5" height="5" fill="#FFDF40"/>
<rect x="115" y="135" width="5" height="5" fill="#FFDF40"/>
<rect x="105" y="150" width="5" height="5" fill="#FFDF40"/>
<rect x="115" y="165" width="5" height="5" fill="#FFDF40"/>
<rect x="105" y="180" width="5" height="5" fill="#FFDF40"/>
<rect x="115" y="195" width="5" height="5" fill="#FFDF40"/>
<rect x="105" y="210" width="5" height="5" fill="#FFDF40"/>
<rect x="115" y="225" width="5" height="5" fill="#FFDF40"/>
<rect x="105" y="240" width="5" height="5" fill="#FFDF40"/>
<rect x="115" y="255" width="5" height="5" fill="#FFDF40"/>
<rect x="105" y="270" width="5" height="5" fill="#FFDF40"/>
<rect x="120" width="5" height="5" fill="#FFDF40"/>
<rect x="130" y="15" width="5" height="5" fill="#FFDF40"/>
<rect x="120" y="30" width="5" height="5" fill="#FFDF40"/>
<rect x="130" y="45" width="5" height="5" fill="#FFDF40"/>
<rect x="120" y="60" width="5" height="5" fill="#FFDF40"/>
<rect x="130" y="75" width="5" height="5" fill="#FFDF40"/>
<rect x="120" y="90" width="5" height="5" fill="#FFDF40"/>
<rect x="130" y="105" width="5" height="5" fill="#FFDF40"/>
<rect x="120" y="120" width="5" height="5" fill="#FFDF40"/>
<rect x="130" y="135" width="5" height="5" fill="#FFDF40"/>
<rect x="120" y="150" width="5" height="5" fill="#FFDF40"/>
<rect x="130" y="165" width="5" height="5" fill="#FFDF40"/>
<rect x="120" y="180" width="5" height="5" fill="#FFDF40"/>
<rect x="130" y="195" width="5" height="5" fill="#FFDF40"/>
<rect x="120" y="210" width="5" height="5" fill="#FFDF40"/>
<rect x="130" y="225" width="5" height="5" fill="#FFDF40"/>
<rect x="120" y="240" width="5" height="5" fill="#FFDF40"/>
<rect x="130" y="255" width="5" height="5" fill="#FFDF40"/>
<rect x="120" y="270" width="5" height="5" fill="#FFDF40"/>
<rect x="135" width="5" height="5" fill="#FFDF40"/>
<rect x="145" y="15" width="5" height="5" fill="#FFDF40"/>
<rect x="135" y="30" width="5" height="5" fill="#FFDF40"/>
<rect x="145" y="45" width="5" height="5" fill="#FFDF40"/>
<rect x="135" y="60" width="5" height="5" fill="#FFDF40"/>
<rect x="145" y="75" width="5" height="5" fill="#FFDF40"/>
<rect x="135" y="90" width="5" height="5" fill="#FFDF40"/>
<rect x="145" y="105" width="5" height="5" fill="#FFDF40"/>
<rect x="135" y="120" width="5" height="5" fill="#FFDF40"/>
<rect x="145" y="135" width="5" height="5" fill="#FFDF40"/>
<rect x="135" y="150" width="5" height="5" fill="#FFDF40"/>
<rect x="145" y="165" width="5" height="5" fill="#FFDF40"/>
<rect x="135" y="180" width="5" height="5" fill="#FFDF40"/>
<rect x="145" y="195" width="5" height="5" fill="#FFDF40"/>
<rect x="135" y="210" width="5" height="5" fill="#FFDF40"/>
<rect x="145" y="225" width="5" height="5" fill="#FFDF40"/>
<rect x="135" y="240" width="5" height="5" fill="#FFDF40"/>
<rect x="145" y="255" width="5" height="5" fill="#FFDF40"/>
<rect x="135" y="270" width="5" height="5" fill="#FFDF40"/>
<rect x="150" width="5" height="5" fill="#FFDF40"/>
<rect x="160" y="15" width="5" height="5" fill="#FFDF40"/>
<rect x="150" y="30" width="5" height="5" fill="#FFDF40"/>
<rect x="160" y="45" width="5" height="5" fill="#FFDF40"/>
<rect x="150" y="60" width="5" height="5" fill="#FFDF40"/>
<rect x="160" y="75" width="5" height="5" fill="#FFDF40"/>
<rect x="150" y="90" width="5" height="5" fill="#FFDF40"/>
<rect x="160" y="105" width="5" height="5" fill="#FFDF40"/>
<rect x="150" y="120" width="5" height="5" fill="#FFDF40"/>
<rect x="160" y="135" width="5" height="5" fill="#FFDF40"/>
<rect x="150" y="150" width="5" height="5" fill="#FFDF40"/>
<rect x="160" y="165" width="5" height="5" fill="#FFDF40"/>
<rect x="150" y="180" width="5" height="5" fill="#FFDF40"/>
<rect x="160" y="195" width="5" height="5" fill="#FFDF40"/>
<rect x="150" y="210" width="5" height="5" fill="#FFDF40"/>
<rect x="160" y="225" width="5" height="5" fill="#FFDF40"/>
<rect x="150" y="240" width="5" height="5" fill="#FFDF40"/>
<rect x="160" y="255" width="5" height="5" fill="#FFDF40"/>
<rect x="150" y="270" width="5" height="5" fill="#FFDF40"/>
<rect x="165" width="5" height="5" fill="#FFDF40"/>
<rect x="175" y="15" width="5" height="5" fill="#FFDF40"/>
<rect x="165" y="30" width="5" height="5" fill="#FFDF40"/>
<rect x="175" y="45" width="5" height="5" fill="#FFDF40"/>
<rect x="165" y="60" width="5" height="5" fill="#FFDF40"/>
<rect x="175" y="75" width="5" height="5" fill="#FFDF40"/>
<rect x="165" y="90" width="5" height="5" fill="#FFDF40"/>
<rect x="175" y="105" width="5" height="5" fill="#FFDF40"/>
<rect x="165" y="120" width="5" height="5" fill="#FFDF40"/>
<rect x="175" y="135" width="5" height="5" fill="#FFDF40"/>
<rect x="165" y="150" width="5" height="5" fill="#FFDF40"/>
<rect x="175" y="165" width="5" height="5" fill="#FFDF40"/>
<rect x="165" y="180" width="5" height="5" fill="#FFDF40"/>
<rect x="175" y="195" width="5" height="5" fill="#FFDF40"/>
<rect x="165" y="210" width="5" height="5" fill="#FFDF40"/>
<rect x="175" y="225" width="5" height="5" fill="#FFDF40"/>
<rect x="165" y="240" width="5" height="5" fill="#FFDF40"/>
<rect x="175" y="255" width="5" height="5" fill="#FFDF40"/>
<rect x="165" y="270" width="5" height="5" fill="#FFDF40"/>
<rect x="180" width="5" height="5" fill="#FFDF40"/>
<rect x="190" y="15" width="5" height="5" fill="#FFDF40"/>
<rect x="180" y="30" width="5" height="5" fill="#FFDF40"/>
<rect x="190" y="45" width="5" height="5" fill="#FFDF40"/>
<rect x="180" y="60" width="5" height="5" fill="#FFDF40"/>
<rect x="190" y="75" width="5" height="5" fill="#FFDF40"/>
<rect x="180" y="90" width="5" height="5" fill="#FFDF40"/>
<rect x="190" y="105" width="5" height="5" fill="#FFDF40"/>
<rect x="180" y="120" width="5" height="5" fill="#FFDF40"/>
<rect x="190" y="135" width="5" height="5" fill="#FFDF40"/>
<rect x="180" y="150" width="5" height="5" fill="#FFDF40"/>
<rect x="190" y="165" width="5" height="5" fill="#FFDF40"/>
<rect x="180" y="180" width="5" height="5" fill="#FFDF40"/>
<rect x="190" y="195" width="5" height="5" fill="#FFDF40"/>
<rect x="180" y="210" width="5" height="5" fill="#FFDF40"/>
<rect x="190" y="225" width="5" height="5" fill="#FFDF40"/>
<rect x="180" y="240" width="5" height="5" fill="#FFDF40"/>
<rect x="190" y="255" width="5" height="5" fill="#FFDF40"/>
<rect x="180" y="270" width="5" height="5" fill="#FFDF40"/>
<rect x="195" width="5" height="5" fill="#FFDF40"/>
<rect x="205" y="15" width="5" height="5" fill="#FFDF40"/>
<rect x="195" y="30" width="5" height="5" fill="#FFDF40"/>
<rect x="205" y="45" width="5" height="5" fill="#FFDF40"/>
<rect x="195" y="60" width="5" height="5" fill="#FFDF40"/>
<rect x="205" y="75" width="5" height="5" fill="#FFDF40"/>
<rect x="195" y="90" width="5" height="5" fill="#FFDF40"/>
<rect x="205" y="105" width="5" height="5" fill="#FFDF40"/>
<rect x="195" y="120" width="5" height="5" fill="#FFDF40"/>
<rect x="205" y="135" width="5" height="5" fill="#FFDF40"/>
<rect x="195" y="150" width="5" height="5" fill="#FFDF40"/>
<rect x="205" y="165" width="5" height="5" fill="#FFDF40"/>
<rect x="195" y="180" width="5" height="5" fill="#FFDF40"/>
<rect x="205" y="195" width="5" height="5" fill="#FFDF40"/>
<rect x="195" y="210" width="5" height="5" fill="#FFDF40"/>
<rect x="205" y="225" width="5" height="5" fill="#FFDF40"/>
<rect x="195" y="240" width="5" height="5" fill="#FFDF40"/>
<rect x="205" y="255" width="5" height="5" fill="#FFDF40"/>
<rect x="195" y="270" width="5" height="5" fill="#FFDF40"/>
<rect x="210" width="5" height="5" fill="#FFDF40"/>
<rect x="220" y="15" width="5" height="5" fill="#FFDF40"/>
<rect x="210" y="30" width="5" height="5" fill="#FFDF40"/>
<rect x="220" y="45" width="5" height="5" fill="#FFDF40"/>
<rect x="210" y="60" width="5" height="5" fill="#FFDF40"/>
<rect x="220" y="75" width="5" height="5" fill="#FFDF40"/>
<rect x="210" y="90" width="5" height="5" fill="#FFDF40"/>
<rect x="220" y="105" width="5" height="5" fill="#FFDF40"/>
<rect x="210" y="120" width="5" height="5" fill="#FFDF40"/>
<rect x="220" y="135" width="5" height="5" fill="#FFDF40"/>
<rect x="210" y="150" width="5" height="5" fill="#FFDF40"/>
<rect x="220" y="165" width="5" height="5" fill="#FFDF40"/>
<rect x="210" y="180" width="5" height="5" fill="#FFDF40"/>
<rect x="220" y="195" width="5" height="5" fill="#FFDF40"/>
<rect x="210" y="210" width="5" height="5" fill="#FFDF40"/>
<rect x="220" y="225" width="5" height="5" fill="#FFDF40"/>
<rect x="210" y="240" width="5" height="5" fill="#FFDF40"/>
<rect x="220" y="255" width="5" height="5" fill="#FFDF40"/>
<rect x="210" y="270" width="5" height="5" fill="#FFDF40"/>
<rect x="225" width="5" height="5" fill="#FFDF40"/>
<rect x="235" y="15" width="5" height="5" fill="#FFDF40"/>
<rect x="225" y="30" width="5" height="5" fill="#FFDF40"/>
<rect x="235" y="45" width="5" height="5" fill="#FFDF40"/>
<rect x="225" y="60" width="5" height="5" fill="#FFDF40"/>
<rect x="235" y="75" width="5" height="5" fill="#FFDF40"/>
<rect x="225" y="90" width="5" height="5" fill="#FFDF40"/>
<rect x="235" y="105" width="5" height="5" fill="#FFDF40"/>
<rect x="225" y="120" width="5" height="5" fill="#FFDF40"/>
<rect x="235" y="135" width="5" height="5" fill="#FFDF40"/>
<rect x="225" y="150" width="5" height="5" fill="#FFDF40"/>
<rect x="235" y="165" width="5" height="5" fill="#FFDF40"/>
<rect x="225" y="180" width="5" height="5" fill="#FFDF40"/>
<rect x="235" y="195" width="5" height="5" fill="#FFDF40"/>
<rect x="225" y="210" width="5" height="5" fill="#FFDF40"/>
<rect x="235" y="225" width="5" height="5" fill="#FFDF40"/>
<rect x="225" y="240" width="5" height="5" fill="#FFDF40"/>
<rect x="235" y="255" width="5" height="5" fill="#FFDF40"/>
<rect x="225" y="270" width="5" height="5" fill="#FFDF40"/>
<rect x="240" width="5" height="5" fill="#FFDF40"/>
<rect x="250" y="15" width="5" height="5" fill="#FFDF40"/>
<rect x="240" y="30" width="5" height="5" fill="#FFDF40"/>
<rect x="250" y="45" width="5" height="5" fill="#FFDF40"/>
<rect x="240" y="60" width="5" height="5" fill="#FFDF40"/>
<rect x="250" y="75" width="5" height="5" fill="#FFDF40"/>
<rect x="240" y="90" width="5" height="5" fill="#FFDF40"/>
<rect x="250" y="105" width="5" height="5" fill="#FFDF40"/>
<rect x="240" y="120" width="5" height="5" fill="#FFDF40"/>
<rect x="250" y="135" width="5" height="5" fill="#FFDF40"/>
<rect x="240" y="150" width="5" height="5" fill="#FFDF40"/>
<rect x="250" y="165" width="5" height="5" fill="#FFDF40"/>
<rect x="240" y="180" width="5" height="5" fill="#FFDF40"/>
<rect x="250" y="195" width="5" height="5" fill="#FFDF40"/>
<rect x="240" y="210" width="5" height="5" fill="#FFDF40"/>
<rect x="250" y="225" width="5" height="5" fill="#FFDF40"/>
<rect x="240" y="240" width="5" height="5" fill="#FFDF40"/>
<rect x="250" y="255" width="5" height="5" fill="#FFDF40"/>
<rect x="240" y="270" width="5" height="5" fill="#FFDF40"/>
<rect x="255" width="5" height="5" fill="#FFDF40"/>
<rect x="265" y="15" width="5" height="5" fill="#FFDF40"/>
<rect x="255" y="30" width="5" height="5" fill="#FFDF40"/>
<rect x="265" y="45" width="5" height="5" fill="#FFDF40"/>
<rect x="255" y="60" width="5" height="5" fill="#FFDF40"/>
<rect x="265" y="75" width="5" height="5" fill="#FFDF40"/>
<rect x="255" y="90" width="5" height="5" fill="#FFDF40"/>
<rect x="265" y="105" width="5" height="5" fill="#FFDF40"/>
<rect x="255" y="120" width="5" height="5" fill="#FFDF40"/>
<rect x="265" y="135" width="5" height="5" fill="#FFDF40"/>
<rect x="255" y="150" width="5" height="5" fill="#FFDF40"/>
<rect x="265" y="165" width="5" height="5" fill="#FFDF40"/>
<rect x="255" y="180" width="5" height="5" fill="#FFDF40"/>
<rect x="265" y="195" width="5" height="5" fill="#FFDF40"/>
<rect x="255" y="210" width="5" height="5" fill="#FFDF40"/>
<rect x="265" y="225" width="5" height="5" fill="#FFDF40"/>
<rect x="255" y="240" width="5" height="5" fill="#FFDF40"/>
<rect x="265" y="255" width="5" height="5" fill="#FFDF40"/>
<rect x="255" y="270" width="5" height="5" fill="#FFDF40"/>
<rect x="270" width="5" height="5" fill="#FFDF40"/>
<rect x="270" y="30" width="5" height="5" fill="#FFDF40"/>
<rect x="270" y="60" width="5" height="5" fill="#FFDF40"/>
<rect x="270" y="90" width="5" height="5" fill="#FFDF40"/>
<rect x="270" y="120" width="5" height="5" fill="#FFDF40"/>
<rect x="270" y="150" width="5" height="5" fill="#FFDF40"/>
<rect x="270" y="180" width="5" height="5" fill="#FFDF40"/>
<rect x="270" y="210" width="5" height="5" fill="#FFDF40"/>
<rect x="270" y="240" width="5" height="5" fill="#FFDF40"/>
<rect x="270" y="270" width="5" height="5" fill="#FFDF40"/>
</g>
<defs>
<clipPath id="clip0_103_1488">
<rect width="277" height="277" fill="white"/>
</clipPath>
</defs>
</svg>
