<svg width="494" height="1143" viewBox="0 0 494 1143" fill="none" xmlns="http://www.w3.org/2000/svg">
<path d="M979.954 53.8C979.954 39.5313 974.446 25.8471 964.64 15.7576C954.835 5.66816 941.536 0 927.669 0H52.2851C38.4183 0 25.1193 5.66816 15.314 15.7576C5.50859 25.8471 0 39.5313 0 53.8L1.0457 808.815C1.12607 817.897 3.43968 826.811 7.77089 834.725C12.1021 842.639 18.3099 849.295 25.8158 854.075L464.031 1134.84C472.333 1140.17 481.923 1143 491.709 1143C501.495 1143 511.085 1140.17 519.388 1134.84L956.557 851.923C964.039 847.079 970.206 840.362 974.481 832.4C978.755 824.438 980.998 815.491 981 806.394L979.954 53.8ZM628.533 920.047C622.165 924.17 614.839 926.462 607.318 926.683C599.798 926.904 592.357 925.047 585.77 921.305C579.184 917.563 573.693 912.072 569.868 905.405C566.044 898.738 564.027 891.137 564.026 883.396V812.581C564.042 805.288 565.847 798.117 569.275 791.734C572.702 785.35 577.641 779.96 583.633 776.065L691.667 706.125C697.677 702.232 702.628 696.834 706.057 690.435C709.487 684.037 711.281 676.848 711.274 669.541L710.882 360.191C710.882 358.711 710.882 357.299 710.882 355.887V354.004C710.913 353.399 710.913 352.793 710.882 352.188C709.289 343.322 705.022 335.197 698.686 328.968C692.351 322.739 684.269 318.722 675.589 317.487H673.759H671.733H606.05C594.938 317.505 584.281 322.036 576.399 330.096C568.517 338.156 564.047 349.093 563.961 360.527V360.863V591.934C563.945 599.227 562.14 606.398 558.712 612.782C555.284 619.166 550.346 624.555 544.354 628.451L512.983 648.626C506.283 652.946 498.537 655.238 490.631 655.238C482.724 655.238 474.978 652.946 468.279 648.626L436.908 628.451C430.881 624.55 425.912 619.144 422.461 612.736C419.01 606.328 417.19 599.126 417.17 591.8V360.393C417.17 348.906 412.736 337.891 404.842 329.769C396.949 321.647 386.243 317.084 375.081 317.084H311.946C300.783 317.084 290.078 321.647 282.184 329.769C274.291 337.891 269.857 348.906 269.857 360.393L270.314 670.415C270.297 677.742 272.086 684.954 275.516 691.376C278.945 697.798 283.901 703.219 289.921 707.133L396.91 775.729C402.91 779.615 407.855 785.002 411.284 791.388C414.713 797.774 416.513 804.95 416.517 812.245V883.261C416.48 890.974 414.446 898.537 410.624 905.172C406.802 911.806 401.329 917.272 394.771 921.006C388.212 924.74 380.805 926.607 373.311 926.415C365.818 926.223 358.51 923.978 352.14 919.912L123.524 773.375L122.674 144.386H429.13L490.696 196.975L550.366 144.386H857.542L858.457 771.559L628.533 920.047Z" fill="#FFDF40" fill-opacity="0.06"/>
</svg>
