<svg width="44" height="51" viewBox="0 0 44 51" fill="none" xmlns="http://www.w3.org/2000/svg">
<path d="M43.1598 2.92591C43.1598 2.30388 42.9176 1.70734 42.4865 1.2675C42.0553 0.827662 41.4706 0.580566 40.8609 0.580566H2.37072C1.76101 0.580566 1.17626 0.827662 0.745123 1.2675C0.313987 1.70734 0.0717773 2.30388 0.0717773 2.92591L0.117756 35.8398C0.12129 36.2358 0.223018 36.6243 0.413459 36.9693C0.603899 37.3143 0.876854 37.6045 1.20688 37.8129L20.4749 50.0526C20.84 50.285 21.2616 50.4082 21.6919 50.4082C22.1222 50.4082 22.5439 50.285 22.9089 50.0526L42.131 37.7191C42.46 37.5079 42.7312 37.2151 42.9191 36.868C43.1071 36.5209 43.2057 36.1308 43.2058 35.7343L43.1598 2.92591ZM27.708 40.6888C27.428 40.8686 27.1059 40.9685 26.7752 40.9781C26.4445 40.9878 26.1174 40.9068 25.8278 40.7437C25.5381 40.5805 25.2967 40.3412 25.1286 40.0505C24.9604 39.7599 24.8717 39.4286 24.8717 39.0911V36.004C24.8724 35.6861 24.9517 35.3735 25.1025 35.0952C25.2532 34.8169 25.4703 34.5819 25.7338 34.4121L30.484 31.3632C30.7482 31.1935 30.9659 30.9582 31.1167 30.6792C31.2675 30.4003 31.3464 30.0869 31.3461 29.7683L31.3288 16.2826C31.3288 16.2181 31.3288 16.1566 31.3288 16.095V16.0129C31.3302 15.9865 31.3302 15.9601 31.3288 15.9338C31.2588 15.5472 31.0712 15.1931 30.7926 14.9215C30.514 14.65 30.1587 14.4748 29.7771 14.421H29.6966H29.6075H26.7195C26.2308 14.4218 25.7623 14.6193 25.4157 14.9707C25.0691 15.3221 24.8726 15.7988 24.8688 16.2973V16.3119V26.3852C24.8681 26.7031 24.7887 27.0157 24.638 27.294C24.4873 27.5723 24.2702 27.8073 24.0067 27.9771L22.6273 28.8566C22.3328 29.0449 21.9922 29.1448 21.6445 29.1448C21.2969 29.1448 20.9563 29.0449 20.6617 28.8566L19.2824 27.9771C19.0174 27.807 18.7989 27.5714 18.6471 27.292C18.4954 27.0127 18.4154 26.6987 18.4145 26.3793V16.2914C18.4145 15.7907 18.2195 15.3105 17.8725 14.9564C17.5254 14.6023 17.0547 14.4034 16.5639 14.4034H13.7879C13.297 14.4034 12.8263 14.6023 12.4793 14.9564C12.1322 15.3105 11.9372 15.7907 11.9372 16.2914L11.9573 29.8065C11.9566 30.1259 12.0353 30.4403 12.186 30.7202C12.3368 31.0002 12.5547 31.2365 12.8194 31.4072L17.5237 34.3975C17.7875 34.5669 18.0049 34.8018 18.1557 35.0801C18.3065 35.3585 18.3856 35.6713 18.3858 35.9894V39.0852C18.3842 39.4214 18.2947 39.7512 18.1267 40.0404C17.9586 40.3296 17.718 40.5679 17.4296 40.7307C17.1412 40.8934 16.8155 40.9748 16.4861 40.9664C16.1566 40.9581 15.8353 40.8602 15.5552 40.683L5.50304 34.2949L5.46568 6.87488H18.9404L21.6474 9.16745L24.2711 6.87488H37.7774L37.8176 34.2157L27.708 40.6888Z" fill="#E52727"/>
</svg>
