<svg width="32" height="36" viewBox="0 0 32 36" fill="none" xmlns="http://www.w3.org/2000/svg">
<path d="M31.3776 2.63239C31.3776 2.19686 31.2045 1.77917 30.8964 1.47121C30.5884 1.16325 30.1705 0.990234 29.7349 0.990234H2.23205C1.79638 0.990234 1.37855 1.16325 1.07049 1.47121C0.762425 1.77917 0.589355 2.19686 0.589355 2.63239L0.622209 25.678C0.624734 25.9552 0.697423 26.2273 0.833501 26.4688C0.969579 26.7104 1.16462 26.9136 1.40044 27.0594L15.1683 35.6294C15.4291 35.7921 15.7304 35.8784 16.0379 35.8784C16.3453 35.8784 16.6466 35.7921 16.9075 35.6294L30.6425 26.9937C30.8775 26.8459 31.0713 26.6409 31.2056 26.3979C31.3399 26.1548 31.4104 25.8817 31.4104 25.6041L31.3776 2.63239ZM20.3366 29.0731C20.1365 29.199 19.9064 29.2689 19.6701 29.2757C19.4338 29.2824 19.2 29.2258 18.9931 29.1115C18.7862 28.9973 18.6136 28.8297 18.4935 28.6262C18.3733 28.4227 18.3099 28.1907 18.3099 27.9544V25.7929C18.3104 25.5703 18.3671 25.3514 18.4748 25.1566C18.5825 24.9617 18.7377 24.7972 18.9259 24.6783L22.3202 22.5435C22.509 22.4247 22.6645 22.2599 22.7723 22.0646C22.88 21.8693 22.9364 21.6499 22.9362 21.4268L22.9238 11.9845C22.9238 11.9393 22.9238 11.8962 22.9238 11.8531V11.7956C22.9248 11.7772 22.9248 11.7586 22.9238 11.7402C22.8738 11.4696 22.7397 11.2216 22.5407 11.0314C22.3416 10.8413 22.0877 10.7187 21.815 10.681H21.7575H21.6939H19.6302C19.2811 10.6815 18.9463 10.8198 18.6987 11.0659C18.451 11.3119 18.3106 11.6457 18.3079 11.9947V12.005V19.058C18.3074 19.2807 18.2507 19.4995 18.143 19.6944C18.0353 19.8892 17.8801 20.0537 17.6919 20.1727L16.7062 20.7885C16.4958 20.9203 16.2524 20.9903 16.004 20.9903C15.7556 20.9903 15.5122 20.9203 15.3017 20.7885L14.3161 20.1727C14.1268 20.0536 13.9706 19.8886 13.8622 19.693C13.7538 19.4974 13.6966 19.2775 13.696 19.0539V11.9906C13.696 11.64 13.5567 11.3038 13.3087 11.0559C13.0607 10.808 12.7244 10.6687 12.3736 10.6687H10.3901C10.0394 10.6687 9.70302 10.808 9.45503 11.0559C9.20703 11.3038 9.06771 11.64 9.06771 11.9906L9.08209 21.4535C9.08154 21.6772 9.13777 21.8973 9.2455 22.0933C9.35324 22.2894 9.50896 22.4548 9.6981 22.5743L13.0595 24.6681C13.248 24.7867 13.4034 24.9511 13.5111 25.146C13.6188 25.341 13.6754 25.56 13.6755 25.7827V27.9503C13.6743 28.1857 13.6104 28.4166 13.4903 28.6191C13.3703 28.8216 13.1983 28.9884 12.9923 29.1024C12.7862 29.2164 12.5535 29.2734 12.318 29.2675C12.0826 29.2616 11.853 29.1931 11.6529 29.069L4.47022 24.5962L4.44353 5.39737H14.0718L16.006 7.00257L17.8808 5.39737H27.5316L27.5604 24.5408L20.3366 29.0731Z" fill="#262626"/>
</svg>
